<svg xmlns="http://www.w3.org/2000/svg" width="256" height="96" viewBox="0 0 256 96">
  <path d="M54 71 C39 71, 27 61, 27 48 C27 36, 37 27, 49 27 C55 17, 66 11, 79 11 C94 11, 108 20, 113 33 C117 31, 122 30, 126 30 C139 30, 149 39, 149 52 C149 63, 141 71, 130 71 Z" fill="#e2e8f0" stroke="#94a3b8" stroke-width="4"/>
  <path d="M146 71 C134 71, 124 63, 124 53 C124 44, 132 37, 142 37 C146 30, 154 26, 162 26 C173 26, 182 32, 186 40 C190 38, 193 37, 197 37 C207 37, 216 45, 216 55 C216 64, 208 71, 199 71 Z" fill="#f1f5f9" stroke="#94a3b8" stroke-width="4"/>
</svg>
